<?xml version="1.0" encoding="UTF-8"?>
<svg version="1.1" xmlns="http://www.w3.org/2000/svg" width="2000" height="473">
<path d="M0 0 C0.94983631 -0.00226556 1.89967262 -0.00453111 2.87829185 -0.00686532 C6.04539965 -0.01317051 9.21246427 -0.0123782 12.37957764 -0.0115509 C14.65682531 -0.01454457 16.93407247 -0.01794758 19.21131897 -0.02172852 C25.38707656 -0.03055173 31.56282028 -0.03290593 37.73858356 -0.0335443 C41.6001557 -0.03425578 45.46172433 -0.03639196 49.32329559 -0.03904152 C62.10888944 -0.04781257 74.8944721 -0.05246192 87.68006852 -0.05171105 C88.71250962 -0.05165111 88.71250962 -0.05165111 89.76580811 -0.05158997 C90.45494961 -0.05154909 91.14409111 -0.0515082 91.85411569 -0.05146609 C103.01643928 -0.05105984 114.17872909 -0.06062551 125.34104291 -0.07472833 C136.82228382 -0.08911879 148.30350393 -0.09581423 159.78475451 -0.09513456 C166.22259964 -0.09488001 172.66040653 -0.09770707 179.09824371 -0.10831261 C185.15573673 -0.11801939 191.21315517 -0.11805506 197.27065086 -0.11079597 C199.48772224 -0.10975333 201.70479832 -0.11209392 203.92186165 -0.11815643 C223.77111506 -0.16889743 242.26881831 0.31174285 257.27313232 15.13371277 C266.66005185 26.0056723 270.426457 38.03734428 270.41357422 52.1139679 C270.4180309 53.63394105 270.4180309 53.63394105 270.42257762 55.18462074 C270.43125812 58.58448919 270.43277233 61.9843224 270.43426514 65.38420105 C270.4388938 67.8202624 270.44391853 70.25632303 270.4493103 72.69238281 C270.46243248 79.31451412 270.46891595 85.93663811 270.47332096 92.55877924 C270.47608661 96.69688577 270.48032459 100.83498998 270.48482513 104.97309494 C270.49701639 116.43910894 270.50731549 127.90512109 270.51070023 139.37114143 C270.51091979 140.10463385 270.51113936 140.83812626 270.51136558 141.59384572 C270.51158386 142.32905721 270.51180213 143.06426871 270.51202703 143.82175934 C270.51247049 145.31148601 270.51291705 146.80121267 270.5133667 148.29093933 C270.51358813 149.02988949 270.51380956 149.76883964 270.5140377 150.53018223 C270.51798301 162.49523505 270.53542952 174.46022687 270.55872622 186.42525615 C270.58247303 198.72113491 270.59490362 211.01698311 270.59606814 223.31288517 C270.59698312 230.21186514 270.60269037 237.11076565 270.62088776 244.00972366 C270.637953 250.50219198 270.6395165 256.99454995 270.63074875 263.48703575 C270.62997916 265.86578335 270.63431075 268.24453909 270.644207 270.62326622 C270.65695611 273.87954074 270.65103322 277.13528437 270.640625 280.39155579 C270.65270961 281.79164719 270.65270961 281.79164719 270.66503835 283.22002327 C270.56722692 296.37342676 266.28770268 308.05081642 257.33551025 317.68917847 C256.61119222 318.46937584 256.61119222 318.46937584 255.8722415 319.26533478 C250.45843605 325.06338966 244.87691457 330.69328737 239.27508545 336.3087616 C238.11873601 337.47139812 236.96256783 338.63421495 235.80656433 339.79719543 C232.05931977 343.56518765 228.30700938 347.32811362 224.55438232 351.09074402 C223.25227382 352.3969088 221.9501958 353.70310397 220.64814758 355.00932884 C214.53554658 361.14090407 208.42058941 367.27011733 202.30268621 373.39640218 C195.27509459 380.43378659 188.2558876 387.47939914 181.24357843 394.53201085 C175.79466975 400.01114662 170.33804317 405.48251968 164.87565374 410.94821566 C161.62491298 414.2012959 158.37749651 417.45753169 155.13825989 420.72207069 C152.09358326 423.79015433 149.0393706 426.84842339 145.9778614 429.89970779 C144.86307273 431.01400435 143.75163465 432.13166588 142.6440258 433.25309944 C128.83875154 447.22085981 116.06780246 454.47589582 96.20629883 454.66995144 C93.07219875 454.67605724 89.93845888 454.66390634 86.80438232 454.65129089 C84.53639274 454.65671794 82.26840669 454.66384386 80.00042725 454.67253113 C73.86820762 454.6906979 67.73625851 454.68372431 61.60403442 454.67101479 C55.17146095 454.66085268 48.73890988 454.67028937 42.30633545 454.67655945 C30.8153553 454.68429132 19.32451285 454.67189942 7.83355427 454.6515221 C-2.56425118 454.63365349 -12.96187795 454.63675835 -23.35968018 454.65519714 C-35.46322734 454.67665105 -47.56663442 454.68454591 -59.67020416 454.67274809 C-66.06665839 454.66652793 -72.46298981 454.6656369 -78.85943604 454.67889404 C-84.87440171 454.69049085 -90.88903159 454.68235661 -96.90396118 454.65931702 C-99.1049036 454.65405041 -101.30587453 454.65550838 -103.50680542 454.66436768 C-118.87284327 454.72049393 -131.12421149 453.80945648 -143.72686768 444.13371277 C-144.55186768 443.51625183 -145.37686768 442.89879089 -146.22686768 442.26261902 C-154.79564282 434.96577144 -159.31865834 424.9266303 -161.72686768 414.13371277 C-161.82742765 411.31161238 -161.87468555 408.51402835 -161.8740387 405.6918335 C-161.87771538 404.83187505 -161.88139207 403.97191661 -161.88518018 403.08589882 C-161.8962094 400.19891736 -161.90005963 397.3119719 -161.90386963 394.42497253 C-161.91013503 392.35683071 -161.9167819 390.28869001 -161.92378235 388.22055054 C-161.94482215 381.42208133 -161.95518705 374.62361192 -161.96514893 367.82511902 C-161.969197 365.48268561 -161.97331393 363.14025231 -161.97749901 360.79781914 C-161.99655323 349.78858233 -162.01078183 338.77935222 -162.01911098 327.77010208 C-162.02887416 315.07568959 -162.05516884 302.38145188 -162.09561187 289.68710095 C-162.12581767 279.86778861 -162.14058423 270.04852624 -162.14389199 260.22916836 C-162.14623805 254.36852605 -162.15514033 248.50807043 -162.18035316 242.6474781 C-162.20371584 237.12757652 -162.20783414 231.60798343 -162.19759178 226.08804512 C-162.19709825 224.06973237 -162.20336447 222.05140402 -162.21714783 220.03313828 C-162.30770225 205.97900578 -161.50839 193.63879432 -153.35186768 181.63371277 C-152.70133423 180.6342865 -152.70133423 180.6342865 -152.03765869 179.6146698 C-150.61716741 177.44297393 -149.17395352 175.28776084 -147.72686768 173.13371277 C-146.76398259 171.68362035 -145.80175791 170.23308923 -144.84014893 168.78215027 C-142.58645249 165.39001435 -140.32213307 162.00515616 -138.05499268 158.62199402 C-132.63020999 150.50947809 -127.27479314 142.35133408 -121.91436768 134.19621277 C-121.38060516 133.38432495 -120.84684265 132.57243713 -120.29690552 131.73594666 C-117.54060941 127.54341746 -114.78472954 123.35061494 -112.02911377 119.15763855 C-106.7646636 111.14771292 -101.49551751 103.14087632 -96.22686768 95.13371277 C-94.16040942 91.99312198 -92.09399776 88.85250055 -90.02764893 85.71183777 C-89.5146524 84.9321312 -89.00165588 84.15242462 -88.47311401 83.34909058 C-85.21671787 78.39930872 -81.9615484 73.44872216 -78.70718384 68.49760437 C-76.47852394 65.10707144 -74.24943856 61.71681835 -72.02032471 58.32658386 C-70.97502956 56.73655296 -69.92993444 55.14639054 -68.8850708 53.55607605 C-65.99425405 49.15622257 -63.09794744 44.76006124 -60.19702148 40.36686707 C-58.6506169 38.01788832 -57.11371732 35.66284384 -55.57696533 33.30754089 C-54.52950243 31.71299143 -53.48181991 30.11858622 -52.43389893 28.52433777 C-51.96529953 27.8013147 -51.49670013 27.07829163 -51.01390076 26.33335876 C-42.6952975 13.73015087 -32.64054889 5.00253384 -17.72686768 1.13371277 C-11.77817686 0.23809859 -6.00956299 -0.01063466 0 0 Z " fill="#4FB553" transform="translate(180.72686767578125,13.866287231445313)"/>
<path d="M0 0 C48.18 0 96.36 0 146 0 C155.19272832 34.47273118 155.19272832 34.47273118 159.1875 50.00390625 C159.64821462 51.79107476 160.10904438 53.57821359 160.56997681 55.36532593 C161.54372264 59.14163183 162.51672175 62.91812892 163.48907471 66.6947937 C165.04139661 72.72402588 166.59553135 78.75278995 168.14990234 84.78149414 C170.05741536 92.18035078 171.9645352 99.57930853 173.87109184 106.97841167 C179.19653623 127.64578144 184.52826687 148.3115287 189.86105347 168.977005 C190.62250072 171.92781462 191.38388907 174.87863942 192.14526367 177.82946777 C200.07423774 208.55885424 208.02092558 239.28357933 216 270 C216.33 270 216.66 270 217 270 C217.28496338 268.77546616 217.56992676 267.55093231 217.86352539 266.28929138 C226.11551209 230.82940659 234.36906298 195.36988607 242.62399942 159.91068786 C243.66576758 155.43574608 244.70749576 150.96079499 245.74920654 146.48583984 C248.72287502 133.71175721 251.6969745 120.93777512 254.67217064 108.16404819 C255.90730015 102.86113021 257.14226592 97.55817427 258.37670898 92.25509644 C258.73095318 90.73344454 258.73095318 90.73344454 259.09235382 89.18105221 C259.52017008 87.34332777 259.94792982 85.50559018 260.37560272 83.66783237 C266.87109077 55.76756584 273.43881199 27.88504906 280 0 C327.52 0 375.04 0 424 0 C424 3.63 424 7.26 424 11 C414.43 11 404.86 11 395 11 C395 127.82 395 244.64 395 365 C404.57 365 414.14 365 424 365 C424 368.63 424 372.26 424 376 C369.88 376 315.76 376 260 376 C260 372.37 260 368.74 260 365 C269.57 365 279.14 365 289 365 C288.67 255.77 288.34 146.54 288 34 C279.09 72.28 270.18 110.56 261 150 C248.8125 202.3125 248.8125 202.3125 242.96875 227.3828125 C239.31735521 243.04806694 235.66999338 258.71425356 232.02656555 274.38136292 C230.09048415 282.70667822 228.15334416 291.03174712 226.21598339 299.35676479 C224.64255567 306.11837816 223.07051945 312.88031297 221.49956703 319.64250183 C220.52740606 323.82559716 219.55386122 328.00836956 218.57995605 332.19105911 C218.13376519 334.10859467 217.68812881 336.02625936 217.24313354 337.94407272 C216.62693344 340.59938946 216.0086256 343.25420803 215.38989258 345.90893555 C215.13669612 347.00343505 215.13669612 347.00343505 214.87838459 348.12004566 C212.70015005 357.44321526 210.32284341 366.70862636 208 376 C185.56 376 163.12 376 140 376 C133.04087561 351.48246944 126.23014586 326.93808233 119.63150024 302.32180786 C117.04063646 292.65779279 114.43822898 282.99688041 111.8359375 273.3359375 C111.56164476 272.31746042 111.28735203 271.29898335 111.00474739 270.24964333 C104.45648395 245.94030267 97.84045585 221.6495032 91.21277237 197.36171341 C90.35477181 194.2174128 89.4969828 191.07305455 88.63925171 187.92868042 C74.45657049 135.94416059 60.21942576 83.97445276 46 32 C45.67 141.89 45.34 251.78 45 365 C54.57 365 64.14 365 74 365 C74 368.63 74 372.26 74 376 C49.58 376 25.16 376 0 376 C0 372.37 0 368.74 0 365 C9.9 365 19.8 365 30 365 C30 248.18 30 131.36 30 11 C20.1 11 10.2 11 0 11 C0 7.37 0 3.74 0 0 Z " fill="#4FB553" transform="translate(463,31)"/>
<path d="M0 0 C43.56 0 87.12 0 132 0 C132 85.14 132 170.28 132 258 C138.67419283 255.03369207 142.83353203 252.93204193 147.9375 248.25 C149.15250845 247.17189391 150.36865868 246.09507324 151.5859375 245.01953125 C152.16956055 244.49955566 152.75318359 243.97958008 153.35449219 243.44384766 C155.53259136 241.53267874 157.7852809 239.7288629 160.0625 237.9375 C164.49769746 234.43296693 168.80904009 230.79889247 173.11352539 227.13647461 C176.54590964 224.21982939 180.0060174 221.34299312 183.5 218.5 C187.53983137 215.21176517 191.53092065 211.87278574 195.5 208.5 C200.35316599 204.37594815 205.25812965 200.32334463 210.19921875 196.3046875 C213.26775787 193.77966925 216.29039812 191.20515231 219.3125 188.625 C224.30345651 184.36883554 229.41589613 180.303079 234.60180664 176.28808594 C239.96808917 172.09808775 245.0999398 167.65641099 250.20263672 163.15087891 C254.8085896 159.0957052 254.8085896 159.0957052 257 158 C241.49 157.67 225.98 157.34 210 157 C210 153.37 210 149.74 210 146 C244.98 146 279.96 146 316 146 C316 149.63 316 153.26 316 157 C314.32212402 156.95903198 314.32212402 156.95903198 312.61035156 156.91723633 C308.40527254 156.82949498 304.20248057 156.81584131 299.99658203 156.82299805 C298.18682808 156.81608077 296.37702959 156.78985331 294.56787109 156.74291992 C282.2043677 156.27895571 282.2043677 156.27895571 271.58782959 161.80155945 C269.26496914 164.09043605 267.14155831 166.54233344 265 169 C263.23863208 170.51511931 261.45078627 172.00066042 259.625 173.4375 C255.4183565 176.82937037 251.28436931 180.28982599 247.1875 183.8125 C246.60145996 184.31612061 246.01541992 184.81974121 245.41162109 185.33862305 C242.99663267 187.41609264 240.58380568 189.49605232 238.17236328 191.57763672 C230.88819346 197.86381485 223.56305118 204.04964389 216 210 C222.50268855 223.97718298 229.38098765 237.7327225 236.4375 251.4375 C238.39601484 255.24793723 240.35274278 259.05928858 242.30859375 262.87109375 C242.7848671 263.79867493 243.26114044 264.7262561 243.75184631 265.6819458 C247.42549116 272.84853038 251.04236297 280.04237809 254.62083435 287.25694275 C257.22997884 292.50675638 259.92907316 297.70215796 262.6875 302.875 C267.09786812 311.18125945 271.31197225 319.58027859 275.5 328 C279.96473341 336.97587949 284.48260428 345.91288749 289.20068359 354.7590332 C295.36859373 366.38336948 301.14578502 378.21565082 307 390 C313.6 390.33 320.2 390.66 327 391 C327 394.63 327 398.26 327 402 C277.5 402 228 402 177 402 C177 398.37 177 394.74 177 391 C184.59 390.67 192.18 390.34 200 390 C198.53691406 387.01324219 197.07382813 384.02648437 195.56640625 380.94921875 C185.76717208 360.94043475 175.97656015 340.92773491 166.25244141 320.88232422 C165.58106588 319.49836697 164.9096791 318.11441517 164.23828125 316.73046875 C163.90538086 316.04424438 163.57248047 315.35802002 163.22949219 314.65100098 C158.64297052 305.19957554 154.03959783 295.75634785 149.4375 286.3125 C149.01110229 285.43746826 148.58470459 284.56243652 148.14538574 283.66088867 C145.76387797 278.77378563 143.38207621 273.88682599 141 269 C138.03 269.33 135.06 269.66 132 270 C132 309.93 132 349.86 132 391 C139.92 391 147.84 391 156 391 C156 394.63 156 398.26 156 402 C105.18 402 54.36 402 2 402 C2 398.37 2 394.74 2 391 C11.57 391 21.14 391 31 391 C31 265.27 31 139.54 31 10 C20.77 10 10.54 10 0 10 C0 6.7 0 3.4 0 0 Z " fill="#4FB554" transform="translate(1440,5)"/>
<path d="M0 0 C0.97943573 -0.00067474 1.95887146 -0.00134949 2.96798706 -0.00204468 C33.81941914 0.03170583 69.87351139 1.97541319 93.32421875 24.75 C101.82604648 34.44987815 106.35377125 45.67775784 109.5625 58 C109.85495605 59.10396118 109.85495605 59.10396118 110.15332031 60.23022461 C114.49036105 78.37580644 114.04751427 97.17974033 114.05592227 115.70373845 C114.06046478 119.34919593 114.07850385 122.99458344 114.09571838 126.63999939 C114.14441375 137.43232017 114.17581557 148.22468071 114.19702148 159.01708984 C114.21359138 167.4449579 114.23647164 175.87269078 114.28004223 184.30046839 C114.30166347 188.61720044 114.30989164 192.93367452 114.30764949 197.25045693 C114.30972024 200.5694693 114.33110007 203.8883138 114.34936523 207.20727539 C114.34478806 208.385121 114.34021088 209.56296661 114.335495 210.77650452 C114.4066954 218.93407938 115.21112718 226.36235099 119.75 233.3125 C122.63213061 236.10456403 124.63400071 236.24064522 128.625 236.5625 C131.52944044 236.49347308 132.7770785 236.23614588 135.4375 234.875 C147.37651539 221.32260416 147.7659001 199.31025291 149.75 182.25 C152.72 182.58 155.69 182.91 158.75 183.25 C157.84269466 207.6846713 155.54423123 235.19695367 137 253.125 C119.43912498 267.98012086 93.57331354 267.76115412 71.83056641 266.015625 C54.07138676 264.02968032 36.1284216 258.90479582 23.75 245.25 C20.38250606 240.51671989 17.82039255 235.67153957 15.75 230.25 C15.24210937 231.25160156 14.73421875 232.25320313 14.2109375 233.28515625 C6.74811134 247.78993141 -1.33437977 257.64674793 -17.25 263.25 C-42.77552898 270.69618698 -74.89649302 268.10021512 -98.4375 255.55078125 C-111.49811735 247.65407647 -120.05003631 235.98904099 -123.78955078 221.10205078 C-127.69541669 203.45060849 -126.71593497 183.70221245 -117.9375 167.6875 C-107.3676952 151.13858952 -89.16574121 144.23150818 -70.70507812 139.94213867 C-48.6772377 135.16329054 -26.21770647 134.06322652 -3.75 134.1875 C-2.13672017 134.19253439 -0.52343878 134.19709381 1.08984375 134.20117188 C4.97660214 134.2120024 8.86328295 134.2291554 12.75 134.25 C12.66472567 124.83377104 12.56952816 115.41770511 12.46247292 106.00169849 C12.41302996 101.62705818 12.36670688 97.2524362 12.328125 92.87768555 C14.68709532 51.21701511 14.68709532 51.21701511 0.75 14.25 C-4.9303906 9.91294502 -10.22973775 8.79707985 -17.25 9.25 C-24.15835191 10.73896333 -30.27292947 12.86229905 -35.0625 18.3125 C-39.73222118 25.93151876 -36.92438358 36.08738004 -35.25 44.25 C-30.63 44.25 -26.01 44.25 -21.25 44.25 C-17.63715328 56.81642336 -17.63715328 56.81642336 -17.25 63.25 C-17.18554688 64.21550781 -17.12109375 65.18101562 -17.0546875 66.17578125 C-16.67940993 76.62100695 -18.47057277 87.1818647 -25.359375 95.41015625 C-37.33848506 107.06751335 -50.6221491 111.63199097 -67.07104492 111.55249023 C-79.73894355 111.23240583 -92.49166623 108.52860069 -101.5625 99.1875 C-111.94418738 86.64120978 -112.09049906 71.7043376 -111.25 56.25 C-109.32805003 41.93374274 -102.00943326 29.55697994 -90.75 20.625 C-64.57619516 1.98509432 -31.04269573 0.01920657 0 0 Z M-13.25 153.25 C-17.9699272 160.62713812 -21.3381801 168.50725622 -22.25 177.25 C-22.35828125 178.25546875 -22.4665625 179.2609375 -22.578125 180.296875 C-23.27459335 187.95802687 -23.42626928 195.56312675 -23.25 203.25 C-23.23211426 204.11544434 -23.21422852 204.98088867 -23.19580078 205.87255859 C-23.48811835 224.51879047 -23.48811835 224.51879047 -17 241.4375 C-13.47246689 243.76246501 -11.49537197 244.39391091 -7.25 244.25 C1.03495073 241.31173259 4.35787921 234.25456849 7.9375 226.765625 C12.66436168 215.85213552 13.03744621 204.92185005 12.9453125 193.17578125 C12.94157258 191.7566091 12.93873025 190.33743434 12.93673706 188.91825867 C12.92917749 185.22100429 12.90959711 181.52391233 12.8873291 177.82672119 C12.86670317 174.0388 12.8576999 170.25085203 12.84765625 166.46289062 C12.82634221 159.05852049 12.79230169 151.65428318 12.75 144.25 C11.01717977 144.20404613 9.28400044 144.17153021 7.55078125 144.14453125 C6.58567627 144.12495361 5.62057129 144.10537598 4.6262207 144.08520508 C-2.40710322 144.48818391 -8.38452995 148.30784274 -13.25 153.25 Z " fill="#4FB653" transform="translate(1030.25,145.75)"/>
<path d="M0 0 C0 122.43 0 244.86 0 371 C13.86 371 27.72 371 42 371 C42 374.63 42 378.26 42 382 C-24.99 382 -91.98 382 -161 382 C-161 378.37 -161 374.74 -161 371 C-142.52 371 -124.04 371 -105 371 C-105 255.5 -105 140 -105 21 C-108.3 21.66 -111.6 22.32 -115 23 C-116.87380638 23.28650132 -118.75131414 23.55120537 -120.63330078 23.77783203 C-121.61356232 23.89780548 -122.59382385 24.01777893 -123.60379028 24.14138794 C-124.62399261 24.26230804 -125.64419495 24.38322815 -126.6953125 24.5078125 C-127.76876923 24.63815887 -128.84222595 24.76850525 -129.94821167 24.90280151 C-133.34004822 25.3138255 -136.73249901 25.71950066 -140.125 26.125 C-142.44014705 26.40459305 -144.75525168 26.68453757 -147.0703125 26.96484375 C-152.71305957 27.64729228 -158.35636348 28.32494817 -164 29 C-164.33 25.04 -164.66 21.08 -165 17 C-156.33664022 15.64490714 -147.66940049 14.31582533 -139 13 C-138.19896599 12.87837494 -137.39793198 12.75674988 -136.57262421 12.63143921 C-125.19801309 10.90685359 -113.81821374 9.22194206 -102.43037224 7.58689117 C-97.32673231 6.85332005 -92.22538756 6.10831834 -87.12768555 5.33447266 C-82.07645964 4.56814069 -77.02119317 3.83566997 -71.962183 3.122612 C-70.09701928 2.85459058 -68.23325969 2.5764766 -66.37157249 2.28528595 C-44.14972153 -1.17219716 -22.80788174 0 0 0 Z " fill="#4FB553" transform="translate(1936,25)"/>
<path d="M0 0 C1.44511963 0.00845947 1.44511963 0.00845947 2.91943359 0.01708984 C19.48810339 0.29838681 32.81943122 5.2028129 44.84375 16.8125 C56.97964725 29.75745707 57.79992806 46.89036896 57.31933594 63.73779297 C56.69039536 76.02076959 52.4593759 88.67060935 43.94140625 97.7890625 C32.00566835 108.15640722 17.49456861 110.2015061 2.1875 109.3125 C-10.24213593 107.5408235 -19.796751 103.12770285 -27.8125 93.3125 C-32.35796127 86.24477981 -34.18697554 78.62347645 -34.125 70.25 C-34.12306641 69.15377319 -34.12306641 69.15377319 -34.12109375 68.03540039 C-33.99622236 60.82954077 -32.58143122 54.3145194 -30.8125 47.3125 C-20.9125 46.8175 -20.9125 46.8175 -10.8125 46.3125 C-7.41105824 37.4111513 -7.41105824 37.4111513 -7.8125 28.3125 C-10.481292 24.67997756 -12.46040758 23.13152846 -16.8125 22.3125 C-26.25247445 21.30225712 -33.69476124 23.85899713 -41.375 29.3125 C-59.70434575 44.60846811 -67.31754194 70.45899711 -69.8125 93.3125 C-70.08972528 98.6477131 -70.12386416 103.97347407 -70.13134766 109.31396484 C-70.1406724 110.8628134 -70.15084473 112.41165704 -70.16178894 113.960495 C-70.18881653 118.11861393 -70.20415634 122.27669954 -70.21721697 126.43488264 C-70.23296832 130.79774213 -70.25971948 135.16053469 -70.2852478 139.52334595 C-70.33182494 147.76414987 -70.36867021 156.00496669 -70.40192068 164.24583399 C-70.44029196 173.63658995 -70.48966222 183.02727833 -70.53990483 192.41797709 C-70.64291096 211.71610746 -70.73082068 231.01426677 -70.8125 250.3125 C-58.2725 250.3125 -45.7325 250.3125 -32.8125 250.3125 C-32.8125 253.9425 -32.8125 257.5725 -32.8125 261.3125 C-88.2525 261.3125 -143.6925 261.3125 -200.8125 261.3125 C-200.8125 257.6825 -200.8125 254.0525 -200.8125 250.3125 C-191.2425 250.3125 -181.6725 250.3125 -171.8125 250.3125 C-171.8125 173.0925 -171.8125 95.8725 -171.8125 16.3125 C-181.3825 16.3125 -190.9525 16.3125 -200.8125 16.3125 C-200.8125 12.6825 -200.8125 9.0525 -200.8125 5.3125 C-157.9125 5.3125 -115.0125 5.3125 -70.8125 5.3125 C-70.4825 19.5025 -70.1525 33.6925 -69.8125 48.3125 C-67.3375 42.8675 -67.3375 42.8675 -64.8125 37.3125 C-55.9425865 20.50634811 -41.70548392 9.96070318 -24.17578125 3.3203125 C-16.10862698 0.90297707 -8.4110221 -0.05187415 0 0 Z " fill="#4FB553" transform="translate(1388.8125,145.6875)"/>
<path d="M0 0 C27.72 0 55.44 0 84 0 C86.31 6.93 88.62 13.86 91 21 C91.99 23.64 92.98 26.28 94 29 C94 29.99 94 30.98 94 32 C96.31 32 98.62 32 101 32 C101.0825 31.10023437 101.165 30.20046875 101.25 29.2734375 C102.07281889 23.522397 104.13241147 18.10369501 106 12.625 C106.36867188 11.52027344 106.73734375 10.41554688 107.1171875 9.27734375 C109.85949096 1.14050904 109.85949096 1.14050904 111 0 C138.39 0 165.78 0 194 0 C194 54.78 194 109.56 194 166 C166.61 166 139.22 166 111 166 C110.67 147.52 110.34 129.04 110 110 C107.03 117.92 104.06 125.84 101 134 C98.69 134 96.38 134 94 134 C90.7 125.75 87.4 117.5 84 109 C83.67 127.81 83.34 146.62 83 166 C55.61 166 28.22 166 0 166 C0 111.22 0 56.44 0 0 Z " fill="#000000" transform="translate(192,71)"/>
</svg>
